<svg width="122" height="32" viewBox="0 0 122 32" fill="none" xmlns="http://www.w3.org/2000/svg">
<path d="M39.3599 16.1512L40.3618 14.1472C41.7281 15.0492 43.3299 15.5286 44.967 15.5255C46.7546 15.5255 47.6954 15.1022 47.6954 14.2978C47.6954 13.4934 47.1168 13.2911 44.8494 13.0935C41.138 12.769 39.8726 11.894 39.8726 9.64551C39.8726 7.39699 41.7448 6.15043 44.92 6.15043C46.6178 6.09344 48.2923 6.55804 49.7181 7.48167L48.8008 9.41972C47.6799 8.69687 46.3713 8.31903 45.0376 8.33309C43.4429 8.33309 42.5068 8.77997 42.5068 9.53261C42.5068 10.2853 43.0807 10.5346 45.3528 10.7321C49.0642 11.0614 50.3296 11.9317 50.3296 14.1849C50.3296 16.4381 48.5045 17.7176 45.0376 17.7176C43.0293 17.7892 41.0474 17.2424 39.3599 16.1512Z" fill="white"/>
<path d="M56.6471 12.9953H63.1245V10.7985H57.602H56.6471H54.0834V17.5158H64.1924V15.3144H56.6471V12.9953Z" fill="white"/>
<path d="M54.0834 6.34448V8.54596H56.6471H57.602H64.1924V6.34448H54.0834Z" fill="white"/>
<path d="M67.9692 11.9789C67.9692 8.36155 70.42 6.14596 74.2632 6.14596C75.7095 6.11055 77.1338 6.50509 78.3557 7.27962L77.5983 9.34939C76.6634 8.7435 75.5749 8.41711 74.4608 8.40859C72.0617 8.40859 70.58 9.77275 70.58 11.9413C70.58 14.1098 72.0758 15.4411 74.5596 15.4411C75.7416 15.4472 76.9 15.1106 77.8947 14.4721L78.732 16.5418C77.4387 17.363 75.9257 17.77 74.3949 17.7084C70.3542 17.7131 67.9692 15.5587 67.9692 11.9789Z" fill="white"/>
<path d="M82.5149 13.3906V6.33456H85.0739V12.9813C85.0739 14.6748 85.9817 15.465 87.8963 15.465C89.8108 15.465 90.7187 14.6748 90.7187 12.9813V6.34397H93.1695V13.4C93.1695 16.1612 91.2455 17.723 87.8445 17.723C84.4435 17.723 82.5149 16.1518 82.5149 13.3906Z" fill="white"/>
<path d="M105.376 17.5165L102.596 13.4099H99.7733V17.5165H97.2097V6.34448H103.861C106.458 6.34448 107.855 7.57693 107.855 9.87719C107.855 11.6506 107.036 12.7843 105.456 13.2123L108.424 17.5165H105.376ZM99.7686 11.2084H103.584C104.717 11.2084 105.244 10.7804 105.244 9.87719C105.244 8.97402 104.717 8.54596 103.584 8.54596H99.7686V11.2084Z" fill="white"/>
<path d="M114.455 12.9953H120.933V10.7985H115.41H114.455H111.891V17.5158H122V15.3144H114.455V12.9953Z" fill="white"/>
<path d="M111.891 6.34448V8.54596H114.455H115.41H122V6.34448H111.891Z" fill="white"/>
<path d="M42.126 23.0326C42.5085 23.0239 42.8899 23.078 43.255 23.1925C43.5248 23.2821 43.7709 23.4317 43.9747 23.63C44.1502 23.8093 44.2822 24.0266 44.3604 24.2651C44.4367 24.5102 44.4747 24.7657 44.4733 25.0224C44.4743 25.2802 44.4314 25.5364 44.3463 25.7798C44.263 26.0232 44.1264 26.245 43.9464 26.4289C43.7417 26.6361 43.4946 26.7966 43.222 26.8993C42.8685 27.015 42.4978 27.0691 42.126 27.0592H39.8398V23.0326H42.126ZM40.663 26.3254H42.0978C42.35 26.3342 42.6018 26.2976 42.841 26.2172C43.0182 26.1575 43.1792 26.0577 43.3114 25.9256C43.426 25.8055 43.5113 25.6607 43.5607 25.5022C43.6064 25.3496 43.6302 25.1912 43.6313 25.0318C43.6308 24.8724 43.6071 24.7139 43.5607 24.5614C43.5111 24.4072 43.4257 24.267 43.3114 24.1522C43.1785 24.023 43.0175 23.9264 42.841 23.8699C42.6012 23.7918 42.3499 23.7552 42.0978 23.7617H40.6866L40.663 26.3254Z" fill="white"/>
<path d="M46.6322 23.0337H47.4554V27.0368H46.6322V23.0337Z" fill="white"/>
<path d="M52.0608 27.1209C51.7145 27.1252 51.3693 27.0809 51.0353 26.9892C50.7546 26.912 50.4923 26.7793 50.2639 26.5988C50.0473 26.4282 49.876 26.2068 49.7652 25.9543C49.6474 25.6719 49.5867 25.3689 49.5867 25.0629C49.5867 24.7569 49.6474 24.4539 49.7652 24.1715C49.8848 23.9125 50.0618 23.6841 50.2827 23.5035C50.5214 23.3158 50.7947 23.1767 51.0871 23.0943C51.4249 22.9968 51.7751 22.9493 52.1266 22.9532C52.5222 22.9435 52.9162 23.0073 53.2885 23.1413C53.5875 23.2484 53.8535 23.4316 54.06 23.6729C54.2492 23.9022 54.3611 24.1853 54.3799 24.482H53.5849C53.5345 24.3194 53.4439 24.1722 53.3215 24.0539C53.1876 23.9249 53.027 23.8269 52.8511 23.767C52.3127 23.6079 51.7367 23.6328 51.2141 23.8375C50.9792 23.9341 50.778 24.0977 50.6355 24.3079C50.5007 24.532 50.4322 24.7897 50.4379 25.0512C50.4328 25.3006 50.4928 25.547 50.612 25.7662C50.7367 25.9755 50.9244 26.1401 51.1482 26.2366C51.447 26.3557 51.7676 26.4103 52.089 26.3965C52.3475 26.401 52.605 26.3629 52.8511 26.2836C53.0547 26.2177 53.2434 26.1122 53.4061 25.9731C53.5453 25.8552 53.6535 25.705 53.7213 25.5357L54.0412 25.4181C54.0287 25.6554 53.9691 25.888 53.8657 26.102C53.7623 26.316 53.6173 26.5073 53.4391 26.6646C53.0502 26.9789 52.5604 27.1411 52.0608 27.1209ZM53.8577 27.0362C53.8494 26.889 53.8494 26.7413 53.8577 26.5941C53.8577 26.4294 53.8954 26.2601 53.9189 26.086C53.9424 25.912 53.9659 25.7615 53.9894 25.6156H52.1549V25.0888H54.5445V27.0362H53.8577Z" fill="white"/>
<path d="M56.7695 23.0337H57.5927V27.0368H56.7695V23.0337Z" fill="white"/>
<path d="M59.5452 23.0337H63.7788V23.7205H59.5452V23.0337ZM61.248 23.6358H62.0665V27.0368H61.248V23.6358Z" fill="white"/>
<path d="M64.978 27.0368L66.8596 23.0337H67.7487L69.6303 27.0368H68.7365L67.0901 23.4289H67.4994L65.8624 27.0368H64.978ZM65.9753 26.1666V25.4798H68.6236V26.1666H65.9753Z" fill="white"/>
<path d="M72.2924 23.0337V26.3265H74.9549V27.0368H71.4692V23.0337H72.2924Z" fill="white"/>
<path d="M82.8016 26.6323H82.4112L84.7162 23.0337H85.5394V27.0368H84.7162V24.1298L84.9137 24.1862L83.0745 27.0368H82.1337L80.2944 24.2144L80.492 24.158V27.0368H79.6688V23.0337H80.492L82.8016 26.6323Z" fill="white"/>
<path d="M87.3595 27.0368L89.2411 23.0337H90.1302L92.0118 27.0368H91.1133L89.4669 23.4289H89.862L88.2297 27.0368H87.3595ZM88.352 26.1666V25.4798H91.0192V26.1666H88.352Z" fill="white"/>
<path d="M93.8418 27.0353V23.0321H96.556C96.8311 23.0268 97.1049 23.0698 97.3651 23.1592C97.5802 23.2326 97.7675 23.3706 97.9014 23.5543C98.0367 23.7588 98.1042 24.0007 98.0942 24.2458C98.0968 24.408 98.0631 24.5687 97.9954 24.7162C97.932 24.8449 97.8364 24.9551 97.7179 25.0361C97.5951 25.122 97.4582 25.1857 97.3134 25.2242C97.1594 25.2665 97.002 25.2949 96.843 25.3089L96.7583 25.2571C96.9971 25.2558 97.2353 25.281 97.4686 25.3324C97.631 25.3606 97.7787 25.4436 97.8872 25.5676C97.988 25.7153 98.0361 25.8926 98.0237 26.0709V27.0117H97.2005V26.1415C97.2092 26.0171 97.1814 25.8928 97.1205 25.784C97.0865 25.7375 97.0436 25.6982 96.9944 25.6684C96.9451 25.6385 96.8905 25.6186 96.8335 25.6099C96.6373 25.5683 96.4366 25.5509 96.2361 25.5582H94.6838V27.0353H93.8418ZM94.665 24.9137H96.5466C96.738 24.926 96.9272 24.8674 97.0782 24.7491C97.142 24.6895 97.1917 24.6162 97.2234 24.5348C97.2552 24.4534 97.2682 24.3659 97.2616 24.2787C97.2662 24.1994 97.252 24.1201 97.2201 24.0474C97.1883 23.9746 97.1396 23.9104 97.0782 23.8601C96.9212 23.7562 96.7345 23.7066 96.5466 23.7189H94.665V24.9137Z" fill="white"/>
<path d="M100.201 23.0337H101.024V27.0368H100.201V23.0337ZM101.913 25.0894V24.7413L104.613 27.0368H103.423L101.019 24.9341L103.155 23.0525H104.326L101.913 25.0894Z" fill="white"/>
<path d="M107.3 25.3669V26.35H110.385V27.0368H106.476V23.0337H110.381V23.7205H107.3V24.7178H109.835V25.3669H107.3Z" fill="white"/>
<path d="M112.122 23.0337H116.356V23.7205H112.122V23.0337ZM113.825 23.6358H114.648V27.0368H113.825V23.6358Z" fill="white"/>
<path d="M117.912 25.6906H118.773C118.791 25.8347 118.859 25.9679 118.965 26.0669C119.097 26.195 119.259 26.2873 119.436 26.335C119.637 26.4039 119.849 26.4373 120.061 26.4338C120.237 26.4384 120.411 26.4146 120.579 26.3632C120.697 26.3299 120.804 26.2629 120.885 26.1704C120.95 26.0857 120.985 25.9812 120.983 25.874C120.986 25.8237 120.976 25.7735 120.953 25.7282C120.931 25.6829 120.898 25.6441 120.856 25.6153C120.737 25.5421 120.604 25.4926 120.466 25.4695C120.292 25.4318 120.057 25.3895 119.77 25.3472C119.552 25.3154 119.337 25.2699 119.125 25.2108C118.937 25.155 118.757 25.076 118.589 24.9756C118.442 24.8886 118.317 24.7696 118.222 24.6275C118.138 24.485 118.092 24.3227 118.09 24.1571C118.085 23.9345 118.157 23.7169 118.293 23.5408C118.447 23.3478 118.655 23.204 118.89 23.1269C119.203 23.0192 119.533 22.9682 119.864 22.9763C120.336 22.9464 120.805 23.0756 121.195 23.3433C121.349 23.4614 121.473 23.6151 121.554 23.7912C121.636 23.9673 121.674 24.1606 121.665 24.3546H120.861C120.86 24.2484 120.832 24.1443 120.778 24.0527C120.724 23.9611 120.648 23.8852 120.555 23.8325C120.337 23.7163 120.092 23.6595 119.845 23.6678C119.621 23.6621 119.399 23.7021 119.191 23.7854C119.112 23.8184 119.045 23.8749 119 23.9474C118.954 24.0198 118.933 24.1046 118.937 24.19C118.934 24.2595 118.956 24.3277 118.998 24.3829C119.051 24.4512 119.123 24.502 119.205 24.5287C119.336 24.5796 119.472 24.6189 119.61 24.6463C119.779 24.6839 119.991 24.7215 120.24 24.7592C120.456 24.7875 120.67 24.8315 120.88 24.8909C121.055 24.9393 121.223 25.0121 121.379 25.1073C121.511 25.1909 121.62 25.3076 121.694 25.446C121.773 25.6015 121.812 25.7747 121.807 25.9493C121.812 26.174 121.746 26.3947 121.618 26.5796C121.472 26.7763 121.268 26.9227 121.035 26.9983C120.708 27.1079 120.364 27.1588 120.019 27.1488C119.754 27.153 119.489 27.1197 119.234 27.05C119.025 26.9978 118.826 26.912 118.646 26.796C118.494 26.6996 118.357 26.5806 118.241 26.4432C118.146 26.3277 118.072 26.1974 118.02 26.0575C117.956 25.945 117.919 25.8195 117.912 25.6906Z" fill="white"/>
<path d="M0.000976562 5.68024V3.44584C9.90291 -0.787772 18.5348 -0.787772 28.432 3.44584V10.4642L25.6802 9.36818V5.70376C19.3674 3.07422 12.222 2.09108 5.72576 4.67358L28.385 13.6771C28.3245 14.7214 28.202 15.7613 28.0181 16.7911L0.000976562 5.68024Z" fill="#FFC32C"/>
<path d="M13.4924 30.9492C7.84756 27.6564 1.97225 23.3569 0.123575 16.7854L3.85385 18.1966C5.77779 22.1009 9.49866 24.9139 14.2403 27.7693C17.9 25.5396 20.4026 23.6579 22.2653 21.6164L0.0530144 12.7776C-0.0128417 11.7991 0.00127002 10.4914 0.00127002 9.48477C2.08985 10.3174 25.7134 19.6972 26.9411 20.224C24.1705 25.2244 19.1795 28.5925 14.2403 31.3114L13.4924 30.9492Z" fill="#FFC32C"/>
</svg>
