<svg width="61" height="66" viewBox="0 0 61 66" fill="none" xmlns="http://www.w3.org/2000/svg">
<path d="M0.00292969 11.5V6.75C21.0529 -2.25 39.4029 -2.25 60.4428 6.75V21.67L54.5928 19.34V11.55C41.1729 5.96 25.9829 3.87 12.1729 9.36L60.3428 28.5C60.2148 30.7202 59.9538 32.9308 59.5628 35.12L0.00292969 11.5Z" fill="#FFC32C"/>
<path d="M28.6827 65.2219C16.6827 58.2218 4.1927 49.0818 0.262702 35.1118L8.1927 38.1118C12.2827 46.4118 20.1927 52.3918 30.2727 58.4618C38.0527 53.7218 43.3727 49.7218 47.3327 45.3818L0.1127 26.5918C-0.0272995 24.5118 0.00269987 21.7318 0.00269987 19.5918C4.4427 21.3618 54.6628 41.3018 57.2728 42.4218C51.3827 53.0518 40.7727 60.2118 30.2727 65.9919L28.6827 65.2219Z" fill="#FFC32C"/>
</svg>
