<?xml version="1.0" encoding="UTF-8"?>
<svg id="Camada_1" data-name="Camada 1" xmlns="http://www.w3.org/2000/svg" xmlns:xlink="http://www.w3.org/1999/xlink" viewBox="0 0 600 231.11">
  <defs>
    <style>
      .cls-1 {
        fill: #fff;
      }

      .cls-1, .cls-2 {
        stroke-width: 0px;
      }

      .cls-2 {
        fill: #eec13f;
      }

      .cls-3 {
        filter: url(#outer-glow-1);
      }
    </style>
    <filter id="outer-glow-1" filterUnits="userSpaceOnUse">
      <feOffset dx="0" dy="0"/>
      <feGaussianBlur result="blur" stdDeviation="9.89"/>
      <feFlood flood-color="#1851eb" flood-opacity=".28"/>
      <feComposite in2="blur" operator="in"/>
      <feComposite in="SourceGraphic"/>
    </filter>
  </defs>
  <g class="cls-3">
    <path class="cls-2" d="M38.49,62.99v-12.32c55.08-23.68,103.1-23.66,158.16,0v39.04l-15.32-6.1v-20.36c-35.12-14.65-74.87-20.1-111-5.74l126.04,50.13c-.35,6.04-1.03,11.87-2.04,17.34L38.49,62.99Z"/>
    <path class="cls-2" d="M113.53,203.69c-31.51-18.3-64.08-42.26-74.37-78.81l20.76,7.81c10.7,21.74,31.47,37.38,57.79,53.27,20.35-12.42,34.29-22.88,44.65-34.23l-123.57-49.15c-.36-5.44-.29-12.72-.29-18.27,11.62,4.64,143.04,56.81,149.86,59.74-15.41,27.83-43.18,46.57-70.64,61.69l-4.18-2.07Z"/>
  </g>
  <path class="cls-1" d="M295.28,159.49c-15.27,0-28-3.4-38.87-10.39l6.11-12.22c9.9,6.2,20.8,9.35,32.41,9.35,17.08,0,20.67-5.43,20.67-9.98,0-6.7-5.61-8.38-21.39-9.75-29-2.56-34.5-10.23-34.5-23.48,0-14.92,13.03-23.83,34.87-23.83,12.94,0,23.68,2.86,32.78,8.75l-5.56,11.72c-7.69-4.73-16.82-7.22-26.51-7.22-12.24,0-19.26,3.55-19.26,9.75,0,6.69,5.61,8.37,21.39,9.74,29,2.57,34.5,10.24,34.5,23.49,0,10.98-6.35,24.06-36.63,24.06Z"/>
  <polygon class="cls-1" points="525.36 158.08 525.36 101.02 523.1 100.55 498.16 158.08 487.15 158.08 462.21 100.55 459.95 101.02 459.95 158.08 444.81 158.08 444.81 80.6 468.22 80.6 493.07 137.8 517.79 80.6 541.32 80.6 541.32 158.08 525.36 158.08"/>
  <path class="cls-1" d="M389.06,80.59h-36.04v13.37h34.16c16.42,0,25.84,9.25,25.84,25.37s-9.42,25.37-25.84,25.37h-18.49v-39.9h-15.67v53.28h36.04c25.22,0,40.27-14.48,40.27-38.75s-15.06-38.74-40.27-38.74Z"/>
</svg>